<svg width="107" height="53" fill="none" xmlns="http://www.w3.org/2000/svg"><g id="Frame" clip-path="url('#clip0_1_130')"><g id="Group" fill="#000"><path id="Vector" d="M9.847 40.164h.07l3.23-11.669c.365-1.305 1.126-2.617 2.54-2.293 1.865.433 1.865 1.169 1.865 1.8 0 .422-.147.954-.403 1.623l-5.28 17.413c-1.272 3.522-2.724 5.36-6.062 5.36-2.36 0-3.338-1.125-3.338-2.365 0-1.371 1.576-2.063 2.99-2.063h.544c.69 0 1.538-.367 1.94-1.958L.654 30.986C.216 29.757 0 29.192 0 28.594c0-1.41.201-1.745 1.74-2.332 1.071-.411 2.398.774 2.724 1.942l5.383 11.96Z"/><path id="Vector_2" d="M51.893 28.622c0-1.63.701-2.496 2.207-2.496 1.441 0 2.213.867 2.213 2.496v.834h.065c.805-2.244 2.779-3.33 5.155-3.33 4.083 0 7.666 3.22 7.666 10.056 0 5.063-2.376 9.803-7.53 9.803-2.24 0-3.92-.976-4.818-2.677h-.065v7.055c0 1.74-.973 2.644-2.447 2.644-1.473 0-2.446-.905-2.446-2.644v-21.74Zm10.711 1.147c-2.952 0-4.067 3.055-4.067 6.396 0 3.018.973 6.562 4.067 6.518 3.23 0 4.029-3.78 4.029-6.518 0-3.461-1.321-6.32-4.029-6.396Z"/><path id="Vector_3" d="M41.393 22.34c0-1.766.962-2.688 2.425-2.688 1.462 0 2.425.922 2.425 2.688v22.065c0 1.767-.963 2.683-2.425 2.683-1.463 0-2.425-.922-2.425-2.683V22.34Z"/><path id="Vector_4" d="M24.533 37.8c0 2.864 1.56 4.949 4.208 4.949 3.431 0 3.431-2.678 5.275-2.678 1.093 0 1.87 1.12 1.87 2.124 0 3.275-4.399 4.8-7.145 4.8-6.361 0-8.764-5.135-8.764-9.864 0-6.325 3.213-10.571 8.607-10.571 5.241 0 8.237 4.427 8.237 8.892 0 1.86-.467 2.343-1.995 2.343H24.533v.005Zm7.503-2.93c-.266-2.775-1.94-4.805-4.116-4.805-2.44 0-3.914 1.865-4.453 4.806h8.57Z"/><path id="Vector_5" d="M106.733 9.602a3.364 3.364 0 0 1-.739 1.12c-.316.312-.68.559-1.104.74-.419.18-.87.274-1.354.274-.484 0-.935-.093-1.354-.274a3.576 3.576 0 0 1-1.104-.74 3.525 3.525 0 0 1-1.027-2.518 3.497 3.497 0 0 1 2.131-3.226c.419-.182.87-.275 1.354-.275.484 0 .935.093 1.354.274.419.181.788.428 1.104.741.315.313.56.68.739 1.108A3.5 3.5 0 0 1 107 8.203c0 .5-.087.966-.267 1.4Zm-.511-2.59a3.199 3.199 0 0 0-.614-.976 2.818 2.818 0 0 0-.914-.653 2.666 2.666 0 0 0-1.142-.241c-.407 0-.788.082-1.141.241-.354.16-.658.379-.919.653a3.103 3.103 0 0 0-.62.977 3.152 3.152 0 0 0-.229 1.185 3.193 3.193 0 0 0 .849 2.183c.261.28.571.505.929.664a2.798 2.798 0 0 0 2.273 0c.354-.16.653-.379.914-.658.255-.275.462-.598.614-.977.152-.373.228-.773.228-1.201 0-.417-.076-.818-.228-1.196Zm-1.691 3.237c-.103-.137-.207-.466-.299-.998-.054-.269-.152-.46-.294-.57-.141-.11-.348-.165-.619-.165h-.473v1.733h-.506V6.327c.179-.022.342-.038.495-.06a3.71 3.71 0 0 1 .527-.033c.272 0 .506.027.701.082.196.06.348.126.463.214.239.176.359.444.359.795 0 .27-.077.483-.229.642a1.29 1.29 0 0 1-.544.33v.032c.359.06.582.379.675.955.054.302.098.521.141.664.044.142.082.241.125.307h-.522v-.006Zm-.402-3.368c-.153-.159-.43-.241-.827-.241-.103 0-.195 0-.266.01a1.52 1.52 0 0 0-.19.023v1.47h.489c.272 0 .511-.055.718-.165.206-.11.304-.301.304-.57a.747.747 0 0 0-.228-.527Z"/><path id="Vector_6" d="M88.85 24.67c-.646.66-.097 1.855-.097 1.855l4.866 8.202s.8 1.08 1.49 1.08c.696 0 1.38-.576 1.38-.576l3.85-5.552s.386-.702.397-1.31c.017-.873-1.288-1.114-1.288-1.114l-9.113-2.952s-.892-.236-1.484.368Z"/><path id="Vector_7" d="M88.388 20.532c.467.796 1.75.565 1.75.565l9.091-2.682s1.24-.51 1.414-1.185c.174-.68-.206-1.498-.206-1.498l-4.345-5.162s-.375-.653-1.158-.719c-.859-.071-1.392.977-1.392.977l-5.138 8.152c.01.01-.446.823-.016 1.552Z"/><path id="Vector_8" d="M84.092 17.358c1.071-.264 1.24-1.833 1.24-1.833L85.26 2.47S85.098.856 84.38.422c-1.126-.69-1.457-.329-1.783-.28L75.05 2.974s-.74.247-1.126.867c-.549.883.56 2.173.56 2.173l7.846 10.785c0-.005.778.806 1.762.56Z"/><path id="Vector_9" d="M82.228 22.642c.027-1.01-1.197-1.613-1.197-1.613l-8.112-4.136s-1.202-.5-1.784-.154c-.445.269-.842.752-.88 1.174l-.528 6.561s-.081 1.136.212 1.657c.414.735 1.773.225 1.773.225l9.471-2.112c.365-.247 1.012-.269 1.044-1.602Z"/><path id="Vector_10" d="M84.589 26.186c-.816-.423-1.784.45-1.784.45l-6.34 7.044s-.794 1.075-.587 1.739c.19.62.506.927.946 1.146l6.367 2.03s.772.16 1.36-.01c.831-.242.68-1.553.68-1.553l.14-9.535c-.01-.006-.043-.927-.782-1.311Z"/></g></g><defs><clipPath id="clip0_1_130"><path fill="#fff" d="M0 0h107v53H0z"/></clipPath></defs></svg>